<svg width="70" height="56" viewBox="0 0 70 56" fill="none" xmlns="http://www.w3.org/2000/svg">
<path fill-rule="evenodd" clip-rule="evenodd" d="M56.8849 21.3515L53.7371 19.9307C52.6558 19.4426 51.3847 19.9259 50.8979 21.0101C50.4112 22.0943 50.8932 23.3688 51.9744 23.8569L59.7916 27.3853L59.8058 27.3918C60.8195 27.8493 62.0001 27.4532 62.5448 26.5085C62.5811 26.4455 62.6146 26.3801 62.645 26.3123L62.645 26.3123L66.1703 18.4599C66.657 17.3757 66.1751 16.1011 65.0938 15.613C64.0125 15.125 62.7413 15.6083 62.2546 16.6925L60.9014 19.7067C59.7051 15.6703 57.597 11.9462 54.722 8.83322C51.0289 4.83433 46.236 2.02333 40.9495 0.755709C35.6631 -0.511914 30.1205 -0.17923 25.0226 1.71169C20.6008 3.35184 16.6858 6.10043 13.6428 9.67983C12.8701 10.5887 13.0912 11.9473 14.0554 12.6485C15.0197 13.3496 16.361 13.1264 17.1469 12.2289C19.6796 9.33647 22.8977 7.11131 26.5191 5.76805C30.8169 4.17391 35.4896 3.89345 39.9463 4.96211C44.4031 6.03078 48.4437 8.40059 51.5572 11.7719C54.0787 14.5021 55.9004 17.7898 56.8849 21.3515ZM24.0044 12.9889C24.0044 11.5225 25.221 10.3337 26.7216 10.3337H44.5775C46.0781 10.3337 47.2946 11.5225 47.2946 12.9889V40.3753H24.0044V12.9889ZM26.7216 10.9975H44.5775C45.7029 10.9975 46.6153 11.8891 46.6153 12.9889V39.7115H24.6837V12.9889C24.6837 11.8891 25.5961 10.9975 26.7216 10.9975ZM26.0811 11.6993C25.706 11.6993 25.4018 11.9965 25.4018 12.3631V17.4079C25.4018 17.7745 25.706 18.0717 26.0811 18.0717H31.2438C31.619 18.0717 31.9231 17.7745 31.9231 17.4079V12.3631C31.9231 11.9965 31.619 11.6993 31.2438 11.6993H26.0811ZM26.0811 25.8097C25.706 25.8097 25.4018 26.1069 25.4018 26.4735V31.5183C25.4018 31.8849 25.706 32.1821 26.0811 32.1821H31.2438C31.619 32.1821 31.9231 31.8849 31.9231 31.5183V26.4735C31.9231 26.1069 31.619 25.8097 31.2438 25.8097H26.0811ZM26.0811 18.5269C25.706 18.5269 25.4018 18.8241 25.4018 19.1907V24.2355C25.4018 24.6021 25.706 24.8993 26.0811 24.8993H31.2438C31.619 24.8993 31.9231 24.6021 31.9231 24.2355V19.1907C31.9231 18.8241 31.619 18.5269 31.2438 18.5269H26.0811ZM26.0811 32.6373C25.706 32.6373 25.4018 32.9345 25.4018 33.3011V38.3459C25.4018 38.7125 25.706 39.0097 26.0811 39.0097H31.2438C31.619 39.0097 31.9231 38.7125 31.9231 38.3459V33.3011C31.9231 32.9345 31.619 32.6373 31.2438 32.6373H26.0811ZM33.0682 11.6993C32.693 11.6993 32.3889 11.9965 32.3889 12.3631V17.4079C32.3889 17.7745 32.693 18.0717 33.0682 18.0717H38.2309C38.606 18.0717 38.9102 17.7745 38.9102 17.4079V12.3631C38.9102 11.9965 38.606 11.6993 38.2309 11.6993H33.0682ZM33.0682 25.8097C32.693 25.8097 32.3889 26.1069 32.3889 26.4735V31.5183C32.3889 31.8849 32.693 32.1821 33.0682 32.1821H38.2309C38.606 32.1821 38.9102 31.8849 38.9102 31.5183V26.4735C38.9102 26.1069 38.606 25.8097 38.2309 25.8097H33.0682ZM33.0682 18.5269C32.693 18.5269 32.3889 18.8241 32.3889 19.1907V24.2355C32.3889 24.6021 32.693 24.8993 33.0682 24.8993H38.2309C38.606 24.8993 38.9102 24.6021 38.9102 24.2355V19.1907C38.9102 18.8241 38.606 18.5269 38.2309 18.5269H33.0682ZM33.0682 32.6373C32.693 32.6373 32.3889 32.9345 32.3889 33.3011V38.3459C32.3889 38.7125 32.693 39.0097 33.0682 39.0097H38.2309C38.606 39.0097 38.9102 38.7125 38.9102 38.3459V33.3011C38.9102 32.9345 38.606 32.6373 38.2309 32.6373H33.0682ZM40.0553 11.6993C39.6801 11.6993 39.376 11.9965 39.376 12.3631V17.4079C39.376 17.7745 39.6801 18.0717 40.0553 18.0717H45.2179C45.5931 18.0717 45.8972 17.7745 45.8972 17.4079V12.3631C45.8972 11.9965 45.5931 11.6993 45.2179 11.6993H40.0553ZM40.0553 25.8097C39.6801 25.8097 39.376 26.1069 39.376 26.4735V31.5183C39.376 31.8849 39.6801 32.1821 40.0553 32.1821H45.2179C45.5931 32.1821 45.8972 31.8849 45.8972 31.5183V26.4735C45.8972 26.1069 45.5931 25.8097 45.2179 25.8097H40.0553ZM40.0553 18.5269C39.6801 18.5269 39.376 18.8241 39.376 19.1907V24.2355C39.376 24.6021 39.6801 24.8993 40.0553 24.8993H45.2179C45.5931 24.8993 45.8972 24.6021 45.8972 24.2355V19.1907C45.8972 18.8241 45.5931 18.5269 45.2179 18.5269H40.0553ZM40.0553 32.6373C39.6801 32.6373 39.376 32.9345 39.376 33.3011V38.3459C39.376 38.7125 39.6801 39.0097 40.0553 39.0097H45.2179C45.5931 39.0097 45.8972 38.7125 45.8972 38.3459V33.3011C45.8972 32.9345 45.5931 32.6373 45.2179 32.6373H40.0553ZM22.1412 41.2856C21.884 41.2856 21.6754 41.4894 21.6754 41.7408C21.6754 41.9922 21.884 42.196 22.1412 42.196H48.6921C48.9493 42.196 49.1579 41.9922 49.1579 41.7408C49.1579 41.4894 48.9493 41.2856 48.6921 41.2856H22.1412ZM16.263 36.0694L13.115 34.6485C14.0995 38.2102 15.9212 41.4979 18.4427 44.2281C21.5562 47.5994 25.5968 49.9692 30.0536 51.0379C34.5103 52.1066 39.183 51.8261 43.4808 50.2319C47.1022 48.8887 50.3203 46.6635 52.853 43.7711C53.6389 42.8736 54.9802 42.6504 55.9445 43.3515C56.9087 44.0527 57.1298 45.4113 56.3571 46.3202C53.3141 49.8996 49.3991 52.6482 44.9773 54.2883C39.8794 56.1792 34.3368 56.5119 29.0504 55.2443C23.7639 53.9767 18.9711 51.1657 15.2779 47.1668C12.4029 44.0538 10.2949 40.3298 9.09858 36.2935L7.74545 39.3075C7.25871 40.3917 5.98757 40.875 4.90628 40.387C3.82499 39.8989 3.34302 38.6243 3.82977 37.5401L7.35506 29.6877L7.35509 29.6877C7.38551 29.6199 7.41899 29.5545 7.45531 29.4915C7.99998 28.5468 9.18055 28.1507 10.1943 28.6082L10.2085 28.6147L18.0256 32.1431C19.1069 32.6312 19.5889 33.9057 19.1021 34.9899C18.6154 36.0741 17.3442 36.5574 16.263 36.0694Z" fill="white"/>
</svg>
