<svg width="70" height="56" viewBox="0 0 70 56" fill="none" xmlns="http://www.w3.org/2000/svg">
<path fill-rule="evenodd" clip-rule="evenodd" d="M19.4831 1H51.3136C52.9704 1 54.3136 2.34314 54.3136 4V51.8H16.4831V4C16.4831 2.34314 17.8262 1 19.4831 1ZM15.4831 4C15.4831 1.79086 17.2739 0 19.4831 0H51.3136C53.5227 0 55.3136 1.79086 55.3136 4V51.8V52.8H54.3136H16.4831H15.4831V51.8V4ZM17.8729 3.3999C17.8729 2.84762 18.3206 2.3999 18.8729 2.3999H28.0254C28.5777 2.3999 29.0254 2.84762 29.0254 3.3999V12.5999C29.0254 13.1522 28.5777 13.5999 28.0254 13.5999H18.8729C18.3206 13.5999 17.8729 13.1522 17.8729 12.5999V3.3999ZM17.8729 28.2002C17.8729 27.6479 18.3206 27.2002 18.8729 27.2002H28.0255C28.5778 27.2002 29.0255 27.6479 29.0255 28.2002V37.4002C29.0255 37.9525 28.5778 38.4002 28.0255 38.4002H18.8729C18.3206 38.4002 17.8729 37.9525 17.8729 37.4002V28.2002ZM18.8729 14.3999C18.3206 14.3999 17.8729 14.8476 17.8729 15.3999V24.5999C17.8729 25.1522 18.3206 25.5999 18.8729 25.5999H28.0254C28.5777 25.5999 29.0254 25.1522 29.0254 24.5999V15.3999C29.0254 14.8476 28.5777 14.3999 28.0254 14.3999H18.8729ZM17.8729 40.2C17.8729 39.6477 18.3206 39.2 18.8729 39.2H28.0254C28.5777 39.2 29.0254 39.6477 29.0254 40.2V49.4C29.0254 49.9522 28.5777 50.4 28.0254 50.4H18.8729C18.3206 50.4 17.8729 49.9522 17.8729 49.4V40.2ZM30.8219 2.3999C30.2697 2.3999 29.8219 2.84762 29.8219 3.3999V12.5999C29.8219 13.1522 30.2697 13.5999 30.8219 13.5999H39.9745C40.5268 13.5999 40.9745 13.1522 40.9745 12.5999V3.3999C40.9745 2.84762 40.5268 2.3999 39.9745 2.3999H30.8219ZM29.8219 28.2002C29.8219 27.6479 30.2696 27.2002 30.8219 27.2002H35.9621L39.7466 35.5038L33.3576 38.4002H30.8219C30.2696 38.4002 29.8219 37.9525 29.8219 37.4002V28.2002ZM47.6294 38.4002L44.7254 36.3314L48.0446 29.7107L42.236 34.6763L41.7711 34.0967V28.2002C41.7711 27.6479 42.2188 27.2002 42.7711 27.2002H51.9237C52.4759 27.2002 52.9237 27.6479 52.9237 28.2002V37.4002C52.9237 37.9525 52.4759 38.4002 51.9237 38.4002H47.6294ZM41.7711 40.2445L42.236 39.6418L45.5552 44.6073L44.7254 40.4694H50.534L48.7521 39.2H51.9236C52.4759 39.2 52.9236 39.6477 52.9236 40.2V49.4C52.9236 49.9522 52.4759 50.4 51.9236 50.4H42.7711C42.2188 50.4 41.7711 49.9522 41.7711 49.4V40.2445ZM35.4918 39.2H39.5532L33.9382 50.4H30.8219C30.2697 50.4 29.8219 49.9522 29.8219 49.4V40.2C29.8219 39.6477 30.2697 39.2 30.8219 39.2H31.5934L30.6188 39.6418L35.4918 39.2ZM33.9383 50.4L40.9745 41.2774V49.4C40.9745 49.9522 40.5268 50.4 39.9745 50.4H33.9383ZM40.9744 33.1035L36.2391 27.2002H39.9744C40.5267 27.2002 40.9744 27.6479 40.9744 28.2002V33.1035ZM30.8219 14.3999C30.2697 14.3999 29.8219 14.8476 29.8219 15.3999V24.5999C29.8219 25.1522 30.2697 25.5999 30.8219 25.5999H39.9745C40.5268 25.5999 40.9745 25.1522 40.9745 24.5999V15.3999C40.9745 14.8476 40.5268 14.3999 39.9745 14.3999H30.8219ZM42.7711 2.3999C42.2188 2.3999 41.7711 2.84762 41.7711 3.3999V12.5999C41.7711 13.1522 42.2188 13.5999 42.7711 13.5999H51.9236C52.4759 13.5999 52.9236 13.1522 52.9236 12.5999V3.3999C52.9236 2.84762 52.4759 2.3999 51.9236 2.3999H42.7711ZM42.7711 14.3999C42.2188 14.3999 41.7711 14.8476 41.7711 15.3999V24.5999C41.7711 25.1522 42.2188 25.5999 42.7711 25.5999H51.9236C52.4759 25.5999 52.9236 25.1522 52.9236 24.5999V15.3999C52.9236 14.8476 52.4759 14.3999 51.9236 14.3999H42.7711ZM11.5 55.2C11.5 54.7582 11.8582 54.4 12.3 54.4H57.7C58.1418 54.4 58.5 54.7582 58.5 55.2C58.5 55.6419 58.1418 56 57.7 56H12.3C11.8582 56 11.5 55.6419 11.5 55.2Z" fill="white"/>
</svg>
