<svg width="70" height="56" viewBox="0 0 70 56" fill="none" xmlns="http://www.w3.org/2000/svg">
<path fill-rule="evenodd" clip-rule="evenodd" d="M51.3136 1H19.4831C17.8262 1 16.4831 2.34314 16.4831 4V51.8H54.3136V4C54.3136 2.34314 52.9704 1 51.3136 1ZM19.4831 0C17.2739 0 15.4831 1.79086 15.4831 4V51.8V52.8H16.4831H54.3136H55.3136V51.8V4C55.3136 1.79086 53.5227 0 51.3136 0H19.4831ZM18.8729 2.3999C18.3206 2.3999 17.8729 2.84762 17.8729 3.3999V12.5999C17.8729 13.1522 18.3206 13.5999 18.8729 13.5999H28.0254C28.5777 13.5999 29.0254 13.1522 29.0254 12.5999V3.3999C29.0254 2.84762 28.5777 2.3999 28.0254 2.3999H18.8729ZM18.8729 27.2002C18.3206 27.2002 17.8729 27.6479 17.8729 28.2002V37.4002C17.8729 37.9525 18.3206 38.4002 18.8729 38.4002H28.0255C28.5778 38.4002 29.0255 37.9525 29.0255 37.4002V28.2002C29.0255 27.6479 28.5778 27.2002 28.0255 27.2002H18.8729ZM17.8729 15.3999C17.8729 14.8476 18.3206 14.3999 18.8729 14.3999H28.0254C28.5777 14.3999 29.0254 14.8476 29.0254 15.3999V24.5999C29.0254 25.1522 28.5777 25.5999 28.0254 25.5999H18.8729C18.3206 25.5999 17.8729 25.1522 17.8729 24.5999V15.3999ZM18.8729 39.2C18.3206 39.2 17.8729 39.6477 17.8729 40.2V49.4C17.8729 49.9522 18.3206 50.4 18.8729 50.4H28.0254C28.5777 50.4 29.0254 49.9522 29.0254 49.4V40.2C29.0254 39.6477 28.5777 39.2 28.0254 39.2H18.8729ZM29.8221 3.3999C29.8221 2.84762 30.2698 2.3999 30.8221 2.3999H39.9746C40.5269 2.3999 40.9746 2.84762 40.9746 3.3999V12.5999C40.9746 13.1522 40.5269 13.5999 39.9746 13.5999H30.8221C30.2698 13.5999 29.8221 13.1522 29.8221 12.5999V3.3999ZM30.822 27.2002C30.2697 27.2002 29.822 27.6479 29.822 28.2002V37.4002C29.822 37.9525 30.2697 38.4002 30.822 38.4002H39.9746C40.5268 38.4002 40.9746 37.9525 40.9746 37.4002V28.2002C40.9746 27.6479 40.5268 27.2002 39.9746 27.2002H30.822ZM29.8221 15.3999C29.8221 14.8476 30.2698 14.3999 30.8221 14.3999H39.9746C40.5269 14.3999 40.9746 14.8476 40.9746 15.3999V24.5999C40.9746 25.1522 40.5269 25.5999 39.9746 25.5999H30.8221C30.2698 25.5999 29.8221 25.1522 29.8221 24.5999V15.3999ZM30.8221 39.2C30.2698 39.2 29.8221 39.6477 29.8221 40.2V49.4C29.8221 49.9522 30.2698 50.4 30.8221 50.4H39.9746C40.5269 50.4 40.9746 49.9522 40.9746 49.4V40.2C40.9746 39.6477 40.5269 39.2 39.9746 39.2H30.8221ZM41.7712 3.3999C41.7712 2.84762 42.2189 2.3999 42.7712 2.3999H51.9238C52.476 2.3999 52.9238 2.84762 52.9238 3.3999V12.5999C52.9238 13.1522 52.476 13.5999 51.9238 13.5999H42.7712C42.2189 13.5999 41.7712 13.1522 41.7712 12.5999V3.3999ZM42.7712 27.2002C42.219 27.2002 41.7712 27.6479 41.7712 28.2002V37.4002C41.7712 37.9525 42.219 38.4002 42.7712 38.4002H51.9238C52.4761 38.4002 52.9238 37.9525 52.9238 37.4002V28.2002C52.9238 27.6479 52.4761 27.2002 51.9238 27.2002H42.7712ZM41.7712 15.3999C41.7712 14.8476 42.2189 14.3999 42.7712 14.3999H51.9238C52.476 14.3999 52.9238 14.8476 52.9238 15.3999V24.5999C52.9238 25.1522 52.476 25.5999 51.9238 25.5999H42.7712C42.2189 25.5999 41.7712 25.1522 41.7712 24.5999V15.3999ZM42.7712 39.2C42.2189 39.2 41.7712 39.6477 41.7712 40.2V49.4C41.7712 49.9522 42.2189 50.4 42.7712 50.4H51.9238C52.476 50.4 52.9238 49.9522 52.9238 49.4V40.2C52.9238 39.6477 52.476 39.2 51.9238 39.2H42.7712ZM12.3 54.4C11.8582 54.4 11.5 54.7582 11.5 55.2C11.5 55.6418 11.8582 56 12.3 56H57.7C58.1418 56 58.5 55.6418 58.5 55.2C58.5 54.7582 58.1418 54.4 57.7 54.4H12.3Z" fill="white"/>
</svg>
