<svg width="201" height="32" viewBox="0 0 201 32" fill="none" xmlns="http://www.w3.org/2000/svg">
<path d="M9.196 8.399H12.628V23.645H9.196V17.177H3.432V23.645H0V8.399H3.432V14.229H9.196V8.399Z" fill="white"/>
<path d="M19.0382 16.011C19.0382 16.759 19.1262 17.4337 19.3022 18.035C19.4929 18.6363 19.7569 19.157 20.0942 19.597C20.4463 20.0223 20.8716 20.3523 21.3703 20.587C21.8689 20.8217 22.4409 20.939 23.0863 20.939C23.7169 20.939 24.2816 20.8217 24.7803 20.587C25.2936 20.3523 25.7189 20.0223 26.0562 19.597C26.4082 19.157 26.6723 18.6363 26.8483 18.035C27.0389 17.4337 27.1343 16.759 27.1343 16.011C27.1343 15.263 27.0389 14.5883 26.8483 13.987C26.6723 13.371 26.4082 12.8503 26.0562 12.425C25.7189 11.985 25.2936 11.6477 24.7803 11.413C24.2816 11.1783 23.7169 11.061 23.0863 11.061C22.4409 11.061 21.8689 11.1857 21.3703 11.435C20.8716 11.6697 20.4463 12.007 20.0942 12.447C19.7569 12.8723 19.4929 13.393 19.3022 14.009C19.1262 14.6103 19.0382 15.2777 19.0382 16.011ZM30.6762 16.011C30.6762 17.3163 30.4783 18.4677 30.0823 19.465C29.7009 20.4477 29.1729 21.2763 28.4983 21.951C27.8236 22.611 27.0169 23.1097 26.0783 23.447C25.1543 23.7843 24.1569 23.953 23.0863 23.953C22.0449 23.953 21.0623 23.7843 20.1383 23.447C19.2143 23.1097 18.4076 22.611 17.7183 21.951C17.0289 21.2763 16.4862 20.4477 16.0903 19.465C15.6943 18.4677 15.4963 17.3163 15.4963 16.011C15.4963 14.7057 15.7016 13.5617 16.1122 12.579C16.5229 11.5817 17.0729 10.7457 17.7623 10.071C18.4663 9.39633 19.2729 8.89033 20.1822 8.553C21.1062 8.21567 22.0742 8.047 23.0863 8.047C24.1276 8.047 25.1103 8.21567 26.0343 8.553C26.9583 8.89033 27.7649 9.39633 28.4543 10.071C29.1436 10.7457 29.6863 11.5817 30.0823 12.579C30.4783 13.5617 30.6762 14.7057 30.6762 16.011Z" fill="white"/>
<path d="M44.8451 8.399V11.325H40.2471V23.645H36.8151V11.325H32.2171V8.399H44.8451Z" fill="white"/>
<path fill-rule="evenodd" clip-rule="evenodd" d="M50.8451 5.5V27.5L67.8451 32V0L50.8451 5.5ZM52.8451 6.95501V16H57.8451V5.33736L52.8451 6.95501ZM58.8451 5.01383V16H65.8451V2.74913L58.8451 5.01383ZM57.8451 17H52.8451V25.9605L57.8451 27.2841V17ZM58.8451 27.5488V17H65.8451V29.4017L58.8451 27.5488Z" fill="white"/>
<path d="M69.8451 16H73.8453V2.74913L69.8451 4.0433V1.94123L75.8453 0V32L69.8451 30.4117V28.3428L73.8453 29.4017V17H69.8451V16Z" fill="white"/>
<path d="M81.8453 16H77.8451V17H81.8453V29.4017L77.8451 28.3428V30.4117L83.8453 32V0L77.8451 1.94123V4.0433L81.8453 2.74913V16Z" fill="white"/>
<path d="M101.395 10.027C101.571 10.6283 101.762 11.3103 101.967 12.073C102.187 12.821 102.414 13.5983 102.649 14.405C102.898 15.2117 103.148 16.0183 103.397 16.825C103.646 17.6317 103.888 18.3797 104.123 19.069C104.314 18.321 104.504 17.507 104.695 16.627C104.9 15.747 105.091 14.8377 105.267 13.899C105.443 12.9603 105.612 12.029 105.773 11.105C105.949 10.1663 106.11 9.26433 106.257 8.399H109.821C109.308 10.951 108.714 13.5397 108.039 16.165C107.379 18.7903 106.66 21.2837 105.883 23.645H102.737C102.224 22.237 101.725 20.763 101.241 19.223C100.757 17.6683 100.28 16.1137 99.8111 14.559C99.3418 16.1137 98.8724 17.6683 98.4031 19.223C97.9338 20.763 97.4424 22.237 96.9291 23.645H93.7831C93.0058 21.2837 92.2798 18.7903 91.6051 16.165C90.9451 13.5397 90.3584 10.951 89.8451 8.399H93.5631C93.7098 9.26433 93.8711 10.1663 94.0471 11.105C94.2231 12.029 94.4064 12.9603 94.5971 13.899C94.7878 14.8377 94.9784 15.747 95.1691 16.627C95.3744 17.507 95.5798 18.321 95.7851 19.069C96.0491 18.3503 96.3058 17.5877 96.5551 16.781C96.8044 15.9743 97.0464 15.1677 97.2811 14.361C97.5158 13.5543 97.7284 12.777 97.9191 12.029C98.1245 11.281 98.3078 10.6137 98.4691 10.027H101.395Z" fill="white"/>
<path d="M112.026 8.399H115.458V23.645H112.026V8.399Z" fill="white"/>
<path d="M129.217 23.645C128.235 21.8997 127.171 20.1763 126.027 18.475C124.883 16.7737 123.666 15.1677 122.375 13.657V23.645H118.987V8.399H121.781C122.265 8.883 122.801 9.477 123.387 10.181C123.974 10.885 124.568 11.6403 125.169 12.447C125.785 13.239 126.394 14.0677 126.995 14.933C127.597 15.7837 128.161 16.605 128.689 17.397V8.399H132.099V23.645H129.217Z" fill="white"/>
<path d="M139.048 20.851C139.21 20.8657 139.393 20.8803 139.598 20.895C139.818 20.895 140.075 20.895 140.368 20.895C142.084 20.895 143.353 20.4623 144.174 19.597C145.01 18.7317 145.428 17.5363 145.428 16.011C145.428 14.4123 145.032 13.2023 144.24 12.381C143.448 11.5597 142.194 11.149 140.478 11.149C140.244 11.149 140.002 11.1563 139.752 11.171C139.503 11.171 139.268 11.1857 139.048 11.215V20.851ZM148.97 16.011C148.97 17.331 148.765 18.4823 148.354 19.465C147.944 20.4477 147.357 21.2617 146.594 21.907C145.846 22.5523 144.93 23.0363 143.844 23.359C142.759 23.6817 141.542 23.843 140.192 23.843C139.576 23.843 138.858 23.8137 138.036 23.755C137.215 23.711 136.408 23.6083 135.616 23.447V8.597C136.408 8.45033 137.23 8.355 138.08 8.311C138.946 8.25233 139.686 8.223 140.302 8.223C141.608 8.223 142.788 8.36967 143.844 8.663C144.915 8.95633 145.832 9.41833 146.594 10.049C147.357 10.6797 147.944 11.4863 148.354 12.469C148.765 13.4517 148.97 14.6323 148.97 16.011Z" fill="white"/>
<path d="M154.719 16.011C154.719 16.759 154.807 17.4337 154.983 18.035C155.174 18.6363 155.438 19.157 155.775 19.597C156.127 20.0223 156.552 20.3523 157.051 20.587C157.55 20.8217 158.122 20.939 158.767 20.939C159.398 20.939 159.962 20.8217 160.461 20.587C160.974 20.3523 161.4 20.0223 161.737 19.597C162.089 19.157 162.353 18.6363 162.529 18.035C162.72 17.4337 162.815 16.759 162.815 16.011C162.815 15.263 162.72 14.5883 162.529 13.987C162.353 13.371 162.089 12.8503 161.737 12.425C161.4 11.985 160.974 11.6477 160.461 11.413C159.962 11.1783 159.398 11.061 158.767 11.061C158.122 11.061 157.55 11.1857 157.051 11.435C156.552 11.6697 156.127 12.007 155.775 12.447C155.438 12.8723 155.174 13.393 154.983 14.009C154.807 14.6103 154.719 15.2777 154.719 16.011ZM166.357 16.011C166.357 17.3163 166.159 18.4677 165.763 19.465C165.382 20.4477 164.854 21.2763 164.179 21.951C163.504 22.611 162.698 23.1097 161.759 23.447C160.835 23.7843 159.838 23.953 158.767 23.953C157.726 23.953 156.743 23.7843 155.819 23.447C154.895 23.1097 154.088 22.611 153.399 21.951C152.71 21.2763 152.167 20.4477 151.771 19.465C151.375 18.4677 151.177 17.3163 151.177 16.011C151.177 14.7057 151.382 13.5617 151.793 12.579C152.204 11.5817 152.754 10.7457 153.443 10.071C154.147 9.39633 154.954 8.89033 155.863 8.553C156.787 8.21567 157.755 8.047 158.767 8.047C159.808 8.047 160.791 8.21567 161.715 8.553C162.639 8.89033 163.446 9.39633 164.135 10.071C164.824 10.7457 165.367 11.5817 165.763 12.579C166.159 13.5617 166.357 14.7057 166.357 16.011Z" fill="white"/>
<path d="M179.233 10.027C179.409 10.6283 179.6 11.3103 179.805 12.073C180.025 12.821 180.252 13.5983 180.487 14.405C180.736 15.2117 180.986 16.0183 181.235 16.825C181.484 17.6317 181.726 18.3797 181.961 19.069C182.152 18.321 182.342 17.507 182.533 16.627C182.738 15.747 182.929 14.8377 183.105 13.899C183.281 12.9603 183.45 12.029 183.611 11.105C183.787 10.1663 183.948 9.26433 184.095 8.399H187.659C187.146 10.951 186.552 13.5397 185.877 16.165C185.217 18.7903 184.498 21.2837 183.721 23.645H180.575C180.062 22.237 179.563 20.763 179.079 19.223C178.595 17.6683 178.118 16.1137 177.649 14.559C177.18 16.1137 176.71 17.6683 176.241 19.223C175.772 20.763 175.28 22.237 174.767 23.645H171.621C170.844 21.2837 170.118 18.7903 169.443 16.165C168.783 13.5397 168.196 10.951 167.683 8.399H171.401C171.548 9.26433 171.709 10.1663 171.885 11.105C172.061 12.029 172.244 12.9603 172.435 13.899C172.626 14.8377 172.816 15.747 173.007 16.627C173.212 17.507 173.418 18.321 173.623 19.069C173.887 18.3503 174.144 17.5877 174.393 16.781C174.642 15.9743 174.884 15.1677 175.119 14.361C175.354 13.5543 175.566 12.777 175.757 12.029C175.962 11.281 176.146 10.6137 176.307 10.027H179.233Z" fill="white"/>
<path d="M194.022 21.027C194.506 21.027 194.902 20.9903 195.21 20.917C195.533 20.829 195.79 20.719 195.98 20.587C196.171 20.4403 196.303 20.2717 196.376 20.081C196.45 19.8903 196.486 19.6777 196.486 19.443C196.486 18.9443 196.252 18.5337 195.782 18.211C195.313 17.8737 194.506 17.5143 193.362 17.133C192.864 16.957 192.365 16.759 191.866 16.539C191.368 16.3043 190.92 16.0183 190.524 15.681C190.128 15.329 189.806 14.911 189.556 14.427C189.307 13.9283 189.182 13.327 189.182 12.623C189.182 11.919 189.314 11.2883 189.578 10.731C189.842 10.159 190.216 9.675 190.7 9.279C191.184 8.883 191.771 8.58233 192.46 8.377C193.15 8.157 193.927 8.047 194.792 8.047C195.819 8.047 196.706 8.157 197.454 8.377C198.202 8.597 198.818 8.839 199.302 9.103L198.312 11.809C197.887 11.589 197.41 11.3983 196.882 11.237C196.369 11.061 195.746 10.973 195.012 10.973C194.191 10.973 193.597 11.0903 193.23 11.325C192.878 11.545 192.702 11.8897 192.702 12.359C192.702 12.6377 192.768 12.8723 192.9 13.063C193.032 13.2537 193.216 13.4297 193.45 13.591C193.7 13.7377 193.978 13.877 194.286 14.009C194.609 14.1263 194.961 14.251 195.342 14.383C196.134 14.6763 196.824 14.9697 197.41 15.263C197.997 15.5417 198.481 15.8717 198.862 16.253C199.258 16.6343 199.552 17.0817 199.742 17.595C199.933 18.1083 200.028 18.7317 200.028 19.465C200.028 20.8877 199.53 21.995 198.532 22.787C197.535 23.5643 196.032 23.953 194.022 23.953C193.348 23.953 192.739 23.909 192.196 23.821C191.654 23.7477 191.17 23.6523 190.744 23.535C190.334 23.4177 189.974 23.293 189.666 23.161C189.373 23.029 189.124 22.9043 188.918 22.787L189.886 20.059C190.341 20.3083 190.898 20.5357 191.558 20.741C192.233 20.9317 193.054 21.027 194.022 21.027Z" fill="white"/>
</svg>
